<?xml version="1.0" encoding="UTF-8" standalone="no"?>
<svg
   version="1.1"
   width="394.08011"
   height="133.99989"
   id="svg18"
   viewBox="0 0 394.08011 133.99989"
   sodipodi:docname="81fb2aef8c3658f14fe8bd10b1c3dab5.cdr"
   xmlns:inkscape="http://www.inkscape.org/namespaces/inkscape"
   xmlns:sodipodi="http://sodipodi.sourceforge.net/DTD/sodipodi-0.dtd"
   xmlns="http://www.w3.org/2000/svg"
   xmlns:svg="http://www.w3.org/2000/svg">
  <defs
     id="defs22" />
  <sodipodi:namedview
     id="namedview20"
     pagecolor="#ffffff"
     bordercolor="#666666"
     borderopacity="1.0"
     inkscape:pageshadow="2"
     inkscape:pageopacity="0.0"
     inkscape:pagecheckerboard="0" />
  <path
     d="m 50.125,118.4709 c -19.1211,0 -34.6223,-15.5268 -34.6223,-34.6799 0,-19.1523 15.5012,-34.6793 34.6223,-34.6793 19.1211,0 34.6224,15.527 34.6224,34.6793 0,19.1531 -15.5013,34.6799 -34.6224,34.6799 z M 85.0836,47.8253 C 76.0527,39.0172 63.7257,33.5829 50.125,33.5829 22.4419,33.5829 0,56.0619 0,83.791 c 0,27.7299 22.4419,50.2089 50.125,50.2089 13.6007,0 25.9277,-5.434 34.9586,-14.2421 v 12.5751 h 15.1665 V 0 H 85.0836 Z"
     style="fill:#000000;fill-rule:evenodd"
     id="path2" />
  <path
     d="m 288.5839,132.3329 h 15.1662 v -97.333 h -15.1662 z"
     style="fill:#000000;fill-rule:evenodd"
     id="path4" />
  <path
     d="m 378.917,132.3329 h 15.1631 V 34.9999 H 378.917 Z"
     style="fill:#000000;fill-rule:evenodd"
     id="path6" />
  <path
     d="m 288.5839,15.666 h 15.1662 V 0 h -15.1662 z"
     style="fill:#000000;fill-rule:evenodd"
     id="path8" />
  <path
     d="m 378.917,15.666 h 15.1631 V 0 H 378.917 Z"
     style="fill:#000000;fill-rule:evenodd"
     id="path10" />
  <path
     d="m 160.7919,118.4709 c -19.122,0 -34.623,-15.5268 -34.623,-34.6799 0,-19.1523 15.501,-34.6793 34.623,-34.6793 19.1211,0 34.6221,15.527 34.6221,34.6793 0,19.1531 -15.501,34.6799 -34.6221,34.6799 z m 34.9582,-70.645 c -9.0311,-8.8087 -21.3582,-14.243 -34.9582,-14.243 -27.684,0 -50.1248,22.479 -50.1248,50.2081 0,27.7299 22.4408,50.2089 50.1248,50.2089 13.6,0 25.9271,-5.4351 34.9582,-14.2429 v 12.5759 h 15.166 v -97.333 h -15.166 z"
     style="fill:#000000;fill-rule:evenodd"
     id="path12" />
  <path
     d="M 277.0821,16.187 V 0.4499 c -19.3051,2.6869 -35.0912,16.3771 -40.8342,34.55 h -15.414 v 15.166 h 14.0831 v 82.167 h 15.1659 v -82.167 h 28.0001 v -15.166 h -25.1841 c 4.64,-9.5411 13.5181,-16.6331 24.1832,-18.8129 z"
     style="fill:#000000;fill-rule:evenodd"
     id="path14" />
  <path
     d="M 340.7511,0 H 325.201 v 34.9999 h -11.1169 v 15.166 h 11.1169 v 37.3339 c 1.7411,23.8542 20.109,43.0682 43.549,46.0752 v -15.7101 c -14.7399,-2.7729 -26.187,-14.895 -27.953,-29.992 -0.007,-0.0544 -0.0459,-0.665 -0.0459,-0.665 V 50.1659 H 368.75 v -15.166 h -27.9989 z"
     style="fill:#000000;fill-rule:evenodd"
     id="path16" />
</svg>
