<svg id="Layer_1" data-name="Layer 1" xmlns="http://www.w3.org/2000/svg" viewBox="0 0 286.23 78.73"><polygon points="18.34 58.98 19.13 51.86 0.92 53.27 0 78.73 26.91 78.73 40.09 50.24 21.16 51.7 18.34 58.98"/><polygon points="32.49 0 10.46 0 8.56 52.67 26.77 51.27 32.49 0"/><polygon points="48.66 0 28.8 51.11 47.73 49.65 70.69 0 48.66 0"/><polygon points="86.38 49.75 75.53 49.75 76.5 47.43 57.08 48.93 42.1 78.73 63.48 78.73 69.02 65.59 84.97 65.59 83.88 78.73 105.26 78.73 105.12 45.23 86.61 46.65 86.38 49.75"/><polygon points="89.03 0 64.72 48.34 84.14 46.84 96.41 17.69 94.25 46.06 112.76 44.63 112.58 0 89.03 0"/><polygon points="108.95 78.73 127.73 78.73 136.71 42.79 117.52 44.27 108.95 78.73"/><polygon points="158.37 0 136.02 0 125.16 43.68 144.35 42.2 147.08 31.25 147.53 41.95 159.79 41.01 158.37 0"/><polygon points="171.72 0 161.55 40.87 180.65 39.4 190.49 0 171.72 0"/><polygon points="152.36 47.69 152.15 41.6 139.89 42.54 141.4 78.73 163.32 78.73 173 39.99 153.91 41.46 152.36 47.69"/><polygon points="240.3 17.15 244.64 0 193.42 0 189.19 17.15 204.82 17.15 199.64 37.93 220.74 36.3 225.54 17.15 240.3 17.15"/><polygon points="181.99 78.73 202.6 78.73 213.1 36.89 192 38.52 181.99 78.73"/><polygon points="261.16 33.19 259.9 49.75 249.05 49.75 255.85 33.6 237.61 35 215.63 78.73 237 78.73 242.54 65.59 258.49 65.59 257.41 78.73 278.79 78.73 278.59 31.84 261.16 33.19"/><polygon points="269.93 17.69 268.8 32.59 286.23 31.25 286.1 0 262.55 0 245.25 34.41 263.49 33 269.93 17.69"/></svg>